<svg xmlns="http://www.w3.org/2000/svg" xmlns:xlink="http://www.w3.org/1999/xlink" width="1080" zoomAndPan="magnify" viewBox="0 0 810 1012.49997" height="1350" preserveAspectRatio="xMidYMid meet" version="1.0"><defs><g/><clipPath id="f9803f9e3c"><path d="M 0.429688 2 L 448.527344 2 L 448.527344 92 L 0.429688 92 Z M 0.429688 2 " clip-rule="nonzero"/></clipPath><clipPath id="fca82d21e7"><rect x="0" width="449" y="0" height="90"/></clipPath><clipPath id="f1a89242dd"><path d="M 115 0.90625 L 137 0.90625 L 137 44 L 115 44 Z M 115 0.90625 " clip-rule="nonzero"/></clipPath><clipPath id="6a164c8351"><path d="M 98.828125 26 L 153 26 L 153 73.90625 L 98.828125 73.90625 Z M 98.828125 26 " clip-rule="nonzero"/></clipPath><clipPath id="234e59173c"><path d="M 81 97 L 369 97 L 369 121.71875 L 81 121.71875 Z M 81 97 " clip-rule="nonzero"/></clipPath><clipPath id="ce0dc17e53"><path d="M 0.0273438 6 L 11 6 L 11 20 L 0.0273438 20 Z M 0.0273438 6 " clip-rule="nonzero"/></clipPath><clipPath id="0cf7872de1"><rect x="0" width="288" y="0" height="25"/></clipPath><clipPath id="bc700acec2"><rect x="0" width="449" y="0" height="122"/></clipPath></defs><g transform="matrix(1, 0, 0, 1, 184, 448)"><g clip-path="url(#bc700acec2)"><g clip-path="url(#f9803f9e3c)"><g transform="matrix(1, 0, 0, 1, 0, 2)"><g clip-path="url(#fca82d21e7)"><g fill="#fe7f2d" fill-opacity="1"><g transform="translate(1.143327, 68.942524)"><g><path d="M 35 -16.15625 C 35 -18.351562 34.40625 -20.21875 33.21875 -21.75 C 32.03125 -23.289062 30.507812 -24.453125 28.65625 -25.234375 C 26.8125 -26.015625 24.816406 -26.40625 22.671875 -26.40625 C 20.703125 -26.40625 18.816406 -26.023438 17.015625 -25.265625 C 15.222656 -24.515625 13.773438 -23.398438 12.671875 -21.921875 C 11.578125 -20.453125 11.03125 -18.585938 11.03125 -16.328125 C 11.03125 -13.140625 12.160156 -10.660156 14.421875 -8.890625 C 16.679688 -7.128906 19.375 -6.25 22.5 -6.25 C 25.96875 -6.25 28.914062 -7.101562 31.34375 -8.8125 C 33.78125 -10.519531 35 -12.96875 35 -16.15625 Z M 39 0.515625 C 38.070312 0.515625 37.273438 0.226562 36.609375 -0.34375 C 35.941406 -0.925781 35.550781 -1.679688 35.4375 -2.609375 L 35.265625 -4.171875 C 35.265625 -4.171875 34.695312 -3.734375 33.5625 -2.859375 C 32.4375 -1.992188 30.84375 -1.125 28.78125 -0.25 C 26.726562 0.613281 24.257812 1.046875 21.375 1.046875 C 17.894531 1.046875 14.789062 0.265625 12.0625 -1.296875 C 9.34375 -2.859375 7.203125 -4.972656 5.640625 -7.640625 C 4.078125 -10.304688 3.296875 -13.289062 3.296875 -16.59375 C 3.296875 -20.238281 4.207031 -23.320312 6.03125 -25.84375 C 7.851562 -28.363281 10.171875 -30.285156 12.984375 -31.609375 C 15.796875 -32.941406 18.648438 -33.609375 21.546875 -33.609375 C 23.796875 -33.609375 25.757812 -33.289062 27.4375 -32.65625 C 29.125 -32.019531 30.53125 -31.28125 31.65625 -30.4375 C 32.789062 -29.601562 33.644531 -28.867188 34.21875 -28.234375 C 34.800781 -27.597656 35.09375 -27.28125 35.09375 -27.28125 L 35.09375 -31.09375 C 35.09375 -33.988281 33.847656 -36.203125 31.359375 -37.734375 C 28.867188 -39.273438 25.539062 -40.046875 21.375 -40.046875 C 20.207031 -40.046875 19.0625 -39.914062 17.9375 -39.65625 C 16.8125 -39.394531 15.640625 -39.265625 14.421875 -39.265625 C 13.429688 -39.265625 12.515625 -39.566406 11.671875 -40.171875 C 10.835938 -40.773438 10.421875 -41.660156 10.421875 -42.828125 C 10.421875 -43.578125 10.648438 -44.238281 11.109375 -44.8125 C 11.578125 -45.394531 12.1875 -45.800781 12.9375 -46.03125 C 14.738281 -46.613281 16.5625 -46.945312 18.40625 -47.03125 C 20.257812 -47.125 21.882812 -47.171875 23.28125 -47.171875 C 29.707031 -47.171875 34.539062 -45.503906 37.78125 -42.171875 C 41.019531 -38.835938 42.640625 -34.507812 42.640625 -29.1875 L 42.640625 -3.125 C 42.640625 -2.144531 42.273438 -1.289062 41.546875 -0.5625 C 40.828125 0.15625 39.976562 0.515625 39 0.515625 Z M 39 0.515625 "/></g></g></g><g fill="#fe7f2d" fill-opacity="1"><g transform="translate(56.55657, 68.942524)"><g><path d="M 26.484375 -47.171875 C 27.296875 -47.171875 28.050781 -47.023438 28.75 -46.734375 C 29.445312 -46.441406 29.796875 -45.71875 29.796875 -44.5625 C 29.796875 -43.050781 29.578125 -41.890625 29.140625 -41.078125 C 28.703125 -40.273438 27.789062 -39.875 26.40625 -39.875 C 23.570312 -39.875 21.300781 -39.175781 19.59375 -37.78125 C 17.882812 -36.394531 16.648438 -34.5 15.890625 -32.09375 C 15.140625 -29.6875 14.765625 -26.921875 14.765625 -23.796875 L 14.765625 -3.390625 C 14.765625 -2.285156 14.398438 -1.359375 13.671875 -0.609375 C 12.953125 0.140625 12.039062 0.515625 10.9375 0.515625 C 9.84375 0.515625 8.914062 0.125 8.15625 -0.65625 C 7.40625 -1.4375 7.03125 -2.347656 7.03125 -3.390625 L 7.03125 -43.25 C 7.03125 -44.238281 7.363281 -45.050781 8.03125 -45.6875 C 8.695312 -46.320312 9.492188 -46.640625 10.421875 -46.640625 C 11.285156 -46.640625 12.035156 -46.332031 12.671875 -45.71875 C 13.316406 -45.113281 13.664062 -44.378906 13.71875 -43.515625 L 14.15625 -37.171875 C 15.082031 -38.910156 16.09375 -40.53125 17.1875 -42.03125 C 18.289062 -43.539062 19.609375 -44.773438 21.140625 -45.734375 C 22.679688 -46.691406 24.460938 -47.171875 26.484375 -47.171875 Z M 26.484375 -47.171875 "/></g></g></g><g fill="#fe7f2d" fill-opacity="1"><g transform="translate(92.267226, 68.942524)"><g/></g></g><g fill="#fe7f2d" fill-opacity="1"><g transform="translate(126.57526, 68.942524)"><g/></g></g><g fill="#fe7f2d" fill-opacity="1"><g transform="translate(160.892283, 68.942524)"><g><path d="M 11.203125 0.515625 C 10.160156 0.515625 9.265625 0.140625 8.515625 -0.609375 C 7.765625 -1.359375 7.390625 -2.253906 7.390625 -3.296875 L 7.390625 -63.921875 C 7.390625 -64.960938 7.765625 -65.859375 8.515625 -66.609375 C 9.265625 -67.367188 10.160156 -67.75 11.203125 -67.75 C 12.242188 -67.75 13.140625 -67.367188 13.890625 -66.609375 C 14.648438 -65.859375 15.03125 -64.960938 15.03125 -63.921875 L 15.03125 -39.515625 C 17.34375 -41.203125 19.378906 -42.609375 21.140625 -43.734375 C 22.910156 -44.859375 24.617188 -45.710938 26.265625 -46.296875 C 27.921875 -46.878906 29.734375 -47.171875 31.703125 -47.171875 C 34.890625 -47.171875 37.453125 -46.457031 39.390625 -45.03125 C 41.328125 -43.613281 42.726562 -41.773438 43.59375 -39.515625 C 44.46875 -37.265625 44.90625 -34.863281 44.90625 -32.3125 L 44.90625 -3.296875 C 44.90625 -2.253906 44.523438 -1.359375 43.765625 -0.609375 C 43.015625 0.140625 42.09375 0.515625 41 0.515625 C 39.957031 0.515625 39.054688 0.140625 38.296875 -0.609375 C 37.546875 -1.359375 37.171875 -2.253906 37.171875 -3.296875 L 37.171875 -30.234375 C 37.171875 -31.796875 36.953125 -33.3125 36.515625 -34.78125 C 36.085938 -36.257812 35.351562 -37.476562 34.3125 -38.4375 C 33.269531 -39.394531 31.820312 -39.875 29.96875 -39.875 C 27.644531 -39.875 25.3125 -39.207031 22.96875 -37.875 C 20.625 -36.539062 18.003906 -34.800781 15.109375 -32.65625 L 15.109375 -3.296875 C 15.109375 -2.253906 14.734375 -1.359375 13.984375 -0.609375 C 13.234375 0.140625 12.304688 0.515625 11.203125 0.515625 Z M 11.203125 0.515625 "/></g></g></g><g fill="#fe7f2d" fill-opacity="1"><g transform="translate(218.129429, 68.942524)"><g><path d="M 35 -16.15625 C 35 -18.351562 34.40625 -20.21875 33.21875 -21.75 C 32.03125 -23.289062 30.507812 -24.453125 28.65625 -25.234375 C 26.8125 -26.015625 24.816406 -26.40625 22.671875 -26.40625 C 20.703125 -26.40625 18.816406 -26.023438 17.015625 -25.265625 C 15.222656 -24.515625 13.773438 -23.398438 12.671875 -21.921875 C 11.578125 -20.453125 11.03125 -18.585938 11.03125 -16.328125 C 11.03125 -13.140625 12.160156 -10.660156 14.421875 -8.890625 C 16.679688 -7.128906 19.375 -6.25 22.5 -6.25 C 25.96875 -6.25 28.914062 -7.101562 31.34375 -8.8125 C 33.78125 -10.519531 35 -12.96875 35 -16.15625 Z M 39 0.515625 C 38.070312 0.515625 37.273438 0.226562 36.609375 -0.34375 C 35.941406 -0.925781 35.550781 -1.679688 35.4375 -2.609375 L 35.265625 -4.171875 C 35.265625 -4.171875 34.695312 -3.734375 33.5625 -2.859375 C 32.4375 -1.992188 30.84375 -1.125 28.78125 -0.25 C 26.726562 0.613281 24.257812 1.046875 21.375 1.046875 C 17.894531 1.046875 14.789062 0.265625 12.0625 -1.296875 C 9.34375 -2.859375 7.203125 -4.972656 5.640625 -7.640625 C 4.078125 -10.304688 3.296875 -13.289062 3.296875 -16.59375 C 3.296875 -20.238281 4.207031 -23.320312 6.03125 -25.84375 C 7.851562 -28.363281 10.171875 -30.285156 12.984375 -31.609375 C 15.796875 -32.941406 18.648438 -33.609375 21.546875 -33.609375 C 23.796875 -33.609375 25.757812 -33.289062 27.4375 -32.65625 C 29.125 -32.019531 30.53125 -31.28125 31.65625 -30.4375 C 32.789062 -29.601562 33.644531 -28.867188 34.21875 -28.234375 C 34.800781 -27.597656 35.09375 -27.28125 35.09375 -27.28125 L 35.09375 -31.09375 C 35.09375 -33.988281 33.847656 -36.203125 31.359375 -37.734375 C 28.867188 -39.273438 25.539062 -40.046875 21.375 -40.046875 C 20.207031 -40.046875 19.0625 -39.914062 17.9375 -39.65625 C 16.8125 -39.394531 15.640625 -39.265625 14.421875 -39.265625 C 13.429688 -39.265625 12.515625 -39.566406 11.671875 -40.171875 C 10.835938 -40.773438 10.421875 -41.660156 10.421875 -42.828125 C 10.421875 -43.578125 10.648438 -44.238281 11.109375 -44.8125 C 11.578125 -45.394531 12.1875 -45.800781 12.9375 -46.03125 C 14.738281 -46.613281 16.5625 -46.945312 18.40625 -47.03125 C 20.257812 -47.125 21.882812 -47.171875 23.28125 -47.171875 C 29.707031 -47.171875 34.539062 -45.503906 37.78125 -42.171875 C 41.019531 -38.835938 42.640625 -34.507812 42.640625 -29.1875 L 42.640625 -3.125 C 42.640625 -2.144531 42.273438 -1.289062 41.546875 -0.5625 C 40.828125 0.15625 39.976562 0.515625 39 0.515625 Z M 39 0.515625 "/></g></g></g><g fill="#fe7f2d" fill-opacity="1"><g transform="translate(273.542673, 68.942524)"><g><path d="M 44.390625 -33.359375 L 44.390625 -3.390625 C 44.390625 -2.285156 44.007812 -1.359375 43.25 -0.609375 C 42.5 0.140625 41.570312 0.515625 40.46875 0.515625 C 39.425781 0.515625 38.53125 0.140625 37.78125 -0.609375 C 37.03125 -1.359375 36.65625 -2.285156 36.65625 -3.390625 L 36.65625 -32.65625 C 36.65625 -34.570312 36.132812 -36.253906 35.09375 -37.703125 C 34.050781 -39.148438 32.171875 -39.875 29.453125 -39.875 C 27.191406 -39.875 25.046875 -39.28125 23.015625 -38.09375 C 20.992188 -36.90625 18.359375 -35.035156 15.109375 -32.484375 L 15.109375 -3.390625 C 15.109375 -2.285156 14.734375 -1.359375 13.984375 -0.609375 C 13.234375 0.140625 12.304688 0.515625 11.203125 0.515625 C 10.097656 0.515625 9.1875 0.125 8.46875 -0.65625 C 7.75 -1.4375 7.390625 -2.347656 7.390625 -3.390625 L 7.390625 -43.171875 C 7.390625 -44.148438 7.734375 -44.972656 8.421875 -45.640625 C 9.117188 -46.304688 9.929688 -46.640625 10.859375 -46.640625 C 11.785156 -46.640625 12.582031 -46.332031 13.25 -45.71875 C 13.914062 -45.113281 14.273438 -44.351562 14.328125 -43.4375 L 14.671875 -39 C 16.703125 -40.90625 18.5 -42.453125 20.0625 -43.640625 C 21.625 -44.828125 23.203125 -45.710938 24.796875 -46.296875 C 26.390625 -46.878906 28.257812 -47.171875 30.40625 -47.171875 C 33.707031 -47.171875 36.382812 -46.5625 38.4375 -45.34375 C 40.488281 -44.125 41.992188 -42.472656 42.953125 -40.390625 C 43.910156 -38.304688 44.390625 -35.960938 44.390625 -33.359375 Z M 44.390625 -33.359375 "/></g></g></g><g fill="#fe7f2d" fill-opacity="1"><g transform="translate(331.995758, 68.942524)"><g><path d="M 38.125 -11.71875 C 38.59375 -12.300781 39.113281 -12.796875 39.6875 -13.203125 C 40.269531 -13.609375 40.9375 -13.8125 41.6875 -13.8125 C 42.851562 -13.8125 43.796875 -13.429688 44.515625 -12.671875 C 45.234375 -11.921875 45.59375 -11.082031 45.59375 -10.15625 C 45.59375 -9.75 45.519531 -9.398438 45.375 -9.109375 C 45.238281 -8.828125 45.113281 -8.570312 45 -8.34375 C 43.257812 -5.5 40.765625 -3.222656 37.515625 -1.515625 C 34.273438 0.191406 30.6875 1.046875 26.75 1.046875 C 22.351562 1.046875 18.488281 -0.0234375 15.15625 -2.171875 C 11.820312 -4.316406 9.210938 -7.195312 7.328125 -10.8125 C 5.453125 -14.4375 4.515625 -18.503906 4.515625 -23.015625 C 4.515625 -27.535156 5.441406 -31.617188 7.296875 -35.265625 C 9.148438 -38.910156 11.769531 -41.804688 15.15625 -43.953125 C 18.539062 -46.097656 22.519531 -47.171875 27.09375 -47.171875 C 31.15625 -47.171875 34.644531 -46.316406 37.5625 -44.609375 C 40.488281 -42.898438 42.96875 -40.597656 45 -37.703125 C 45.34375 -37.179688 45.515625 -36.570312 45.515625 -35.875 C 45.515625 -34.882812 45.132812 -34.023438 44.375 -33.296875 C 43.625 -32.578125 42.757812 -32.21875 41.78125 -32.21875 C 41.03125 -32.21875 40.363281 -32.4375 39.78125 -32.875 C 39.195312 -33.3125 38.644531 -33.816406 38.125 -34.390625 C 37.488281 -35.203125 36.722656 -36.023438 35.828125 -36.859375 C 34.929688 -37.703125 33.785156 -38.414062 32.390625 -39 C 31.003906 -39.582031 29.269531 -39.875 27.1875 -39.875 C 24 -39.875 21.304688 -39.117188 19.109375 -37.609375 C 16.910156 -36.109375 15.226562 -34.097656 14.0625 -31.578125 C 12.90625 -29.054688 12.328125 -26.203125 12.328125 -23.015625 C 12.328125 -19.890625 12.90625 -17.066406 14.0625 -14.546875 C 15.226562 -12.023438 16.910156 -10.007812 19.109375 -8.5 C 21.304688 -7 23.96875 -6.25 27.09375 -6.25 C 29.238281 -6.25 31.019531 -6.550781 32.4375 -7.15625 C 33.851562 -7.769531 35.007812 -8.507812 35.90625 -9.375 C 36.8125 -10.25 37.550781 -11.03125 38.125 -11.71875 Z M 38.125 -11.71875 "/></g></g></g><g fill="#fe7f2d" fill-opacity="1"><g transform="translate(389.580319, 68.942524)"><g><path d="M 26.140625 -40.046875 C 22.085938 -40.046875 18.875 -38.753906 16.5 -36.171875 C 14.125 -33.597656 12.707031 -30.429688 12.25 -26.671875 L 40.46875 -26.671875 C 40.007812 -30.773438 38.460938 -34.03125 35.828125 -36.4375 C 33.191406 -38.84375 29.960938 -40.046875 26.140625 -40.046875 Z M 37.703125 -10.859375 C 38.109375 -11.265625 38.539062 -11.625 39 -11.9375 C 39.457031 -12.257812 40.035156 -12.421875 40.734375 -12.421875 C 41.722656 -12.421875 42.5625 -12.070312 43.25 -11.375 C 43.945312 -10.6875 44.296875 -9.90625 44.296875 -9.03125 C 44.296875 -7.8125 43.554688 -6.421875 42.078125 -4.859375 C 40.609375 -3.296875 38.566406 -1.921875 35.953125 -0.734375 C 33.347656 0.453125 30.367188 1.046875 27.015625 1.046875 C 22.847656 1.046875 19.054688 0.0195312 15.640625 -2.03125 C 12.222656 -4.09375 9.515625 -6.945312 7.515625 -10.59375 C 5.515625 -14.238281 4.515625 -18.410156 4.515625 -23.109375 C 4.515625 -27.335938 5.367188 -31.273438 7.078125 -34.921875 C 8.785156 -38.566406 11.273438 -41.519531 14.546875 -43.78125 C 17.816406 -46.039062 21.738281 -47.171875 26.3125 -47.171875 C 30.945312 -47.171875 34.882812 -46.050781 38.125 -43.8125 C 41.375 -41.582031 43.878906 -38.628906 45.640625 -34.953125 C 47.410156 -31.285156 48.296875 -27.28125 48.296875 -22.9375 C 48.296875 -22.238281 48.046875 -21.65625 47.546875 -21.1875 C 47.054688 -20.726562 46.46875 -20.5 45.78125 -20.5 L 12.25 -20.5 C 12.539062 -17.945312 13.28125 -15.570312 14.46875 -13.375 C 15.65625 -11.175781 17.316406 -9.425781 19.453125 -8.125 C 21.597656 -6.820312 24.207031 -6.171875 27.28125 -6.171875 C 30.164062 -6.171875 32.375 -6.691406 33.90625 -7.734375 C 35.445312 -8.773438 36.710938 -9.816406 37.703125 -10.859375 Z M 37.703125 -10.859375 "/></g></g></g></g></g></g><g clip-path="url(#f1a89242dd)"><path fill="#fe7f2d" d="M 134.515625 39.734375 L 131.414062 35.738281 L 131.675781 32.273438 L 134.515625 37.933594 Z M 121.179688 25.617188 C 120.652344 18.492188 122.171875 11.230469 125.734375 4.105469 C 129.5 11.296875 131.015625 18.957031 130.292969 26.878906 L 129.433594 35.539062 L 126.726562 35.539062 L 126.726562 29.144531 C 126.726562 28.613281 126.261719 28.144531 125.800781 28.144531 C 125.273438 28.144531 124.8125 28.613281 124.8125 29.144531 L 124.8125 35.539062 L 122.039062 35.539062 Z M 117.21875 37.933594 L 119.792969 32.675781 L 120.058594 36.070312 L 117.21875 39.734375 Z M 136.363281 37.269531 L 132.074219 28.613281 L 132.207031 27.082031 C 133.0625 18.355469 131.214844 9.898438 126.855469 1.910156 L 126.59375 1.511719 C 126.394531 1.175781 126.066406 0.910156 125.734375 0.910156 L 125.667969 0.910156 C 125.339844 0.910156 125.007812 1.175781 124.8125 1.511719 L 124.085938 3.042969 C 120.253906 10.566406 118.671875 18.222656 119.265625 25.75 L 119.53125 28.945312 L 115.371094 37.269531 C 115.238281 37.402344 115.238281 37.535156 115.238281 37.734375 L 115.238281 42.597656 C 115.238281 42.996094 115.503906 43.394531 115.898438 43.527344 C 115.964844 43.59375 116.097656 43.59375 116.230469 43.59375 C 116.492188 43.59375 116.824219 43.460938 117.019531 43.195312 L 121.445312 37.535156 L 122.632812 37.535156 L 122.632812 38.535156 C 122.632812 39.066406 123.09375 39.53125 123.558594 39.53125 L 124.8125 39.53125 L 124.8125 42.597656 C 124.8125 43.128906 125.273438 43.59375 125.800781 43.59375 C 126.261719 43.59375 126.726562 43.128906 126.726562 42.597656 L 126.726562 39.53125 L 127.980469 39.53125 C 128.507812 39.53125 128.90625 39.066406 128.90625 38.535156 L 128.90625 37.535156 L 130.292969 37.535156 L 134.78125 43.195312 C 134.910156 43.460938 135.242188 43.59375 135.570312 43.59375 C 135.636719 43.59375 135.703125 43.59375 135.835938 43.527344 C 136.230469 43.394531 136.496094 42.996094 136.496094 42.597656 L 136.496094 37.734375 C 136.496094 37.535156 136.496094 37.402344 136.363281 37.269531 Z M 136.363281 37.269531 " fill-opacity="1" fill-rule="evenodd"/></g><path fill="#fe7f2d" d="M 125.753906 13.734375 C 126.210938 13.734375 126.667969 14.132812 126.667969 14.65625 C 126.667969 15.183594 126.210938 15.578125 125.753906 15.578125 C 125.234375 15.578125 124.78125 15.183594 124.78125 14.65625 C 124.78125 14.132812 125.234375 13.734375 125.753906 13.734375 Z M 125.753906 17.554688 C 127.316406 17.554688 128.617188 16.238281 128.617188 14.65625 C 128.617188 13.011719 127.316406 11.761719 125.753906 11.761719 C 124.195312 11.761719 122.828125 13.011719 122.828125 14.65625 C 122.828125 16.238281 124.195312 17.554688 125.753906 17.554688 Z M 125.753906 17.554688 " fill-opacity="1" fill-rule="evenodd"/><g clip-path="url(#6a164c8351)"><path fill="#fe7f2d" d="M 125.867188 74.050781 C 118.710938 74.050781 111.882812 71.261719 106.78125 66.085938 C 101.679688 60.980469 98.828125 54.210938 98.828125 46.980469 C 98.828125 43.066406 99.691406 39.351562 101.28125 35.835938 C 102.804688 32.386719 104.992188 29.402344 107.777344 26.945312 C 108.371094 26.414062 109.234375 26.414062 109.765625 27.011719 C 110.292969 27.542969 110.226562 28.472656 109.632812 29.003906 C 107.179688 31.191406 105.191406 33.910156 103.800781 36.964844 C 102.410156 40.082031 101.679688 43.464844 101.679688 46.980469 C 101.679688 53.417969 104.199219 59.519531 108.769531 64.097656 C 113.34375 68.675781 119.4375 71.261719 125.867188 71.261719 C 132.359375 71.261719 138.457031 68.675781 142.964844 64.097656 C 147.601562 59.519531 150.121094 53.417969 150.121094 46.980469 C 150.121094 40.015625 147.074219 33.316406 141.835938 28.671875 C 141.242188 28.207031 141.175781 27.34375 141.707031 26.746094 C 142.167969 26.148438 143.097656 26.082031 143.628906 26.613281 C 149.523438 31.722656 152.90625 39.152344 152.90625 46.980469 C 152.90625 54.210938 150.054688 60.980469 144.953125 66.085938 C 139.851562 71.261719 133.089844 74.050781 125.867188 74.050781 " fill-opacity="1" fill-rule="evenodd"/></g><path fill="#fe7f2d" d="M 136.300781 70.863281 C 136.167969 70.863281 136.035156 70.863281 135.898438 70.796875 C 135.164062 70.597656 134.765625 69.789062 134.964844 69.050781 C 135.300781 68.042969 135.164062 66.765625 134.433594 65.824219 C 133.699219 64.746094 132.496094 64.210938 131.09375 64.140625 C 130.960938 64.140625 130.695312 64.210938 130.5625 64.210938 C 129.960938 64.277344 129.425781 64.140625 129.160156 63.671875 C 128.492188 62.796875 127.558594 62.328125 126.488281 62.328125 C 124.820312 62.328125 123.421875 63.539062 123.285156 65.152344 C 123.21875 65.621094 122.953125 66.023438 122.621094 66.226562 C 122.21875 66.429688 121.75 66.429688 121.351562 66.292969 C 120.949219 66.09375 120.484375 66.023438 120.015625 66.023438 C 118.613281 66.023438 117.480469 66.429688 116.746094 67.167969 C 116.210938 67.640625 115.945312 68.308594 115.945312 68.984375 C 116.011719 69.789062 115.34375 70.460938 114.609375 70.460938 C 113.808594 70.460938 113.140625 69.855469 113.140625 69.050781 C 113.140625 67.640625 113.742188 66.226562 114.742188 65.152344 C 115.609375 64.210938 117.28125 63.203125 119.949219 63.203125 L 120.015625 63.203125 C 120.285156 63.203125 120.617188 63.203125 120.882812 63.269531 C 121.820312 61.050781 124.019531 59.503906 126.488281 59.503906 C 128.160156 59.503906 129.691406 60.175781 130.828125 61.386719 C 130.960938 61.386719 131.027344 61.386719 131.09375 61.386719 C 133.429688 61.386719 135.5 62.394531 136.699219 64.210938 C 137.96875 65.890625 138.304688 68.042969 137.636719 69.925781 C 137.433594 70.53125 136.902344 70.863281 136.300781 70.863281 " fill-opacity="1" fill-rule="evenodd"/><path fill="#fe7f2d" d="M 121.230469 64.644531 C 120.5625 64.644531 119.960938 64.246094 119.828125 63.585938 C 119.5625 62.390625 118.363281 61.460938 116.628906 60.996094 C 116.230469 60.863281 115.761719 60.863281 115.363281 60.929688 C 114.898438 60.996094 114.496094 60.863281 114.164062 60.53125 C 113.828125 60.265625 113.695312 59.804688 113.761719 59.339844 C 113.964844 57.746094 112.964844 56.21875 111.363281 55.820312 C 110.363281 55.554688 109.296875 55.820312 108.496094 56.417969 C 108.03125 56.816406 107.496094 56.882812 106.964844 56.617188 C 106.832031 56.550781 106.632812 56.484375 106.496094 56.417969 C 105.429688 56.21875 104.5 56.285156 103.632812 56.617188 C 102.898438 56.949219 102.097656 56.617188 101.765625 55.953125 C 101.433594 55.292969 101.765625 54.429688 102.5 54.097656 C 103.898438 53.433594 105.496094 53.300781 107.097656 53.699219 C 107.230469 53.765625 107.296875 53.765625 107.429688 53.832031 C 108.765625 52.96875 110.496094 52.703125 112.097656 53.101562 C 114.5625 53.765625 116.230469 55.820312 116.5625 58.144531 C 116.828125 58.210938 117.097656 58.210938 117.363281 58.277344 C 121.296875 59.339844 122.296875 61.859375 122.5625 62.921875 C 122.761719 63.714844 122.296875 64.445312 121.5625 64.644531 C 121.429688 64.644531 121.296875 64.644531 121.230469 64.644531 " fill-opacity="1" fill-rule="evenodd"/><path fill="#fe7f2d" d="M 134.046875 64.355469 C 133.914062 64.355469 133.78125 64.355469 133.714844 64.355469 C 132.914062 64.160156 132.515625 63.363281 132.648438 62.636719 C 132.914062 61.710938 133.847656 59.398438 137.382812 58.472656 C 137.582031 58.472656 137.785156 58.40625 137.917969 58.339844 C 138.25 56.289062 139.785156 54.570312 141.921875 53.976562 C 143.320312 53.644531 144.855469 53.84375 146.054688 54.570312 C 146.191406 54.570312 146.191406 54.570312 146.257812 54.503906 C 147.722656 54.171875 149.191406 54.304688 150.457031 54.835938 C 151.125 55.164062 151.457031 56.023438 151.125 56.6875 C 150.792969 57.414062 149.925781 57.742188 149.257812 57.414062 C 148.589844 57.082031 147.789062 57.015625 146.921875 57.214844 C 146.789062 57.28125 146.65625 57.347656 146.457031 57.414062 C 145.988281 57.613281 145.453125 57.546875 144.988281 57.214844 C 144.320312 56.6875 143.453125 56.488281 142.652344 56.6875 C 141.320312 57.015625 140.519531 58.273438 140.71875 59.59375 C 140.785156 60.058594 140.585938 60.453125 140.320312 60.785156 C 139.984375 61.050781 139.519531 61.183594 139.117188 61.183594 C 138.785156 61.050781 138.382812 61.117188 138.050781 61.183594 C 136.648438 61.578125 135.648438 62.308594 135.382812 63.363281 C 135.25 63.960938 134.648438 64.355469 134.046875 64.355469 " fill-opacity="1" fill-rule="evenodd"/><path fill="#fe7f2d" d="M 126.15625 41.179688 C 125.21875 41.179688 124.351562 41.714844 123.882812 42.582031 C 123.746094 42.980469 123.679688 43.316406 123.679688 43.714844 C 123.679688 44.515625 123.949219 46.980469 124.550781 49.449219 C 125.152344 52.183594 125.753906 53.382812 126.089844 53.917969 C 126.421875 53.382812 127.027344 52.183594 127.695312 49.449219 C 128.363281 46.980469 128.699219 44.515625 128.699219 43.714844 C 128.699219 43.316406 128.5625 42.980469 128.429688 42.648438 C 128.027344 41.714844 127.160156 41.179688 126.15625 41.179688 Z M 126.355469 54.316406 Z M 126.089844 57.050781 C 124.351562 57.050781 123.078125 55.117188 121.941406 50.847656 C 121.273438 48.050781 120.804688 44.980469 120.804688 43.714844 C 120.804688 42.914062 121.003906 42.113281 121.339844 41.382812 C 122.277344 39.515625 124.082031 38.378906 126.15625 38.378906 C 128.230469 38.378906 130.101562 39.582031 131.039062 41.449219 C 131.375 42.113281 131.507812 42.914062 131.507812 43.714844 C 131.507812 44.980469 131.039062 48.050781 130.304688 50.847656 C 129.097656 55.117188 127.828125 57.050781 126.089844 57.050781 Z M 126.089844 57.050781 " fill-opacity="1" fill-rule="evenodd"/><g clip-path="url(#234e59173c)"><g transform="matrix(1, 0, 0, 1, 81, 97)"><g clip-path="url(#0cf7872de1)"><g clip-path="url(#ce0dc17e53)"><g fill="#fe7f2d" fill-opacity="1"><g transform="translate(0.419032, 19.308884)"><g><path d="M 9.90625 -12.359375 L 9.90625 -10.296875 L 6.34375 -10.296875 L 6.34375 0 L 3.90625 0 L 3.90625 -10.296875 L 0.34375 -10.296875 L 0.34375 -12.359375 Z M 9.90625 -12.359375 "/></g></g></g></g><g fill="#fe7f2d" fill-opacity="1"><g transform="translate(17.92147, 19.308884)"><g><path d="M 4.046875 -5.421875 L 4.046875 -2.046875 L 9.953125 -2.046875 L 9.953125 0 L 1.609375 0 L 1.609375 -12.359375 L 9.8125 -12.359375 L 9.8125 -10.3125 L 4.046875 -10.3125 L 4.046875 -7.421875 L 9.09375 -7.421875 L 9.09375 -5.421875 Z M 4.046875 -5.421875 "/></g></g></g><g fill="#fe7f2d" fill-opacity="1"><g transform="translate(35.804351, 19.308884)"><g><path d="M 6.75 0.171875 C 5.613281 0.171875 4.609375 -0.0625 3.734375 -0.53125 C 2.867188 -1.007812 2.191406 -1.722656 1.703125 -2.671875 C 1.210938 -3.617188 0.96875 -4.785156 0.96875 -6.171875 C 0.96875 -7.566406 1.210938 -8.738281 1.703125 -9.6875 C 2.191406 -10.632812 2.867188 -11.34375 3.734375 -11.8125 C 4.609375 -12.289062 5.613281 -12.53125 6.75 -12.53125 C 7.9375 -12.53125 8.945312 -12.296875 9.78125 -11.828125 C 10.613281 -11.367188 11.207031 -10.664062 11.5625 -9.71875 L 9.78125 -8.625 L 9.5625 -8.625 C 9.300781 -9.269531 8.941406 -9.734375 8.484375 -10.015625 C 8.035156 -10.296875 7.457031 -10.4375 6.75 -10.4375 C 5.726562 -10.4375 4.925781 -10.09375 4.34375 -9.40625 C 3.769531 -8.726562 3.484375 -7.648438 3.484375 -6.171875 C 3.484375 -4.703125 3.769531 -3.628906 4.34375 -2.953125 C 4.925781 -2.273438 5.726562 -1.9375 6.75 -1.9375 C 8.351562 -1.9375 9.335938 -2.71875 9.703125 -4.28125 L 9.921875 -4.28125 L 11.71875 -3.34375 C 11.375 -2.164062 10.789062 -1.285156 9.96875 -0.703125 C 9.15625 -0.117188 8.082031 0.171875 6.75 0.171875 Z M 6.75 0.171875 "/></g></g></g><g fill="#fe7f2d" fill-opacity="1"><g transform="translate(55.183623, 19.308884)"><g><path d="M 9.59375 -7.703125 L 9.59375 -12.359375 L 12.015625 -12.359375 L 12.015625 0 L 9.59375 0 L 9.59375 -5.625 L 4.046875 -5.625 L 4.046875 0 L 1.609375 0 L 1.609375 -12.359375 L 4.046875 -12.359375 L 4.046875 -7.703125 Z M 9.59375 -7.703125 "/></g></g></g><g fill="#fe7f2d" fill-opacity="1"><g transform="translate(76.076203, 19.308884)"><g/></g></g><g fill="#fe7f2d" fill-opacity="1"><g transform="translate(87.415526, 19.308884)"><g><path d="M 5.0625 0.171875 C 4.164062 0.171875 3.378906 0.0195312 2.703125 -0.28125 C 2.035156 -0.582031 1.519531 -1.015625 1.15625 -1.578125 C 0.789062 -2.148438 0.609375 -2.8125 0.609375 -3.5625 C 0.609375 -4.375 0.8125 -5.050781 1.21875 -5.59375 C 1.625 -6.132812 2.234375 -6.578125 3.046875 -6.921875 L 3.0625 -7.09375 C 2.695312 -7.550781 2.429688 -7.972656 2.265625 -8.359375 C 2.097656 -8.742188 2.015625 -9.164062 2.015625 -9.625 C 2.015625 -10.195312 2.148438 -10.703125 2.421875 -11.140625 C 2.691406 -11.578125 3.082031 -11.914062 3.59375 -12.15625 C 4.113281 -12.40625 4.726562 -12.53125 5.4375 -12.53125 C 6.113281 -12.53125 6.691406 -12.414062 7.171875 -12.1875 C 7.660156 -11.96875 8.03125 -11.65625 8.28125 -11.25 C 8.539062 -10.851562 8.671875 -10.394531 8.671875 -9.875 C 8.671875 -9.164062 8.457031 -8.550781 8.03125 -8.03125 C 7.613281 -7.519531 6.960938 -7.09375 6.078125 -6.75 L 6.0625 -6.578125 L 8.34375 -3.5625 C 8.476562 -3.851562 8.570312 -4.1875 8.625 -4.5625 C 8.675781 -4.945312 8.703125 -5.378906 8.703125 -5.859375 L 8.703125 -6.296875 L 10.671875 -6.296875 C 10.671875 -4.554688 10.332031 -3.148438 9.65625 -2.078125 C 9.789062 -1.960938 9.910156 -1.882812 10.015625 -1.84375 C 10.117188 -1.800781 10.234375 -1.78125 10.359375 -1.78125 C 10.484375 -1.78125 10.582031 -1.785156 10.65625 -1.796875 C 10.726562 -1.804688 10.804688 -1.820312 10.890625 -1.84375 L 11.015625 -1.8125 L 11.3125 -0.125 C 11.207031 -0.0507812 11.054688 0.00390625 10.859375 0.046875 C 10.660156 0.0859375 10.441406 0.109375 10.203125 0.109375 C 9.796875 0.109375 9.429688 0.0390625 9.109375 -0.09375 C 8.796875 -0.226562 8.5 -0.4375 8.21875 -0.71875 L 8.046875 -0.71875 C 7.347656 -0.125 6.351562 0.171875 5.0625 0.171875 Z M 5.046875 -7.921875 C 5.566406 -8.179688 5.945312 -8.441406 6.1875 -8.703125 C 6.425781 -8.972656 6.546875 -9.3125 6.546875 -9.71875 C 6.546875 -10.0625 6.441406 -10.328125 6.234375 -10.515625 C 6.035156 -10.703125 5.765625 -10.796875 5.421875 -10.796875 C 5.066406 -10.796875 4.785156 -10.691406 4.578125 -10.484375 C 4.367188 -10.285156 4.265625 -10.007812 4.265625 -9.65625 C 4.265625 -9.382812 4.316406 -9.128906 4.421875 -8.890625 C 4.535156 -8.648438 4.742188 -8.328125 5.046875 -7.921875 Z M 5.34375 -1.828125 C 5.882812 -1.828125 6.347656 -1.929688 6.734375 -2.140625 L 3.984375 -5.640625 C 3.660156 -5.429688 3.421875 -5.179688 3.265625 -4.890625 C 3.109375 -4.597656 3.03125 -4.253906 3.03125 -3.859375 C 3.03125 -3.453125 3.125 -3.09375 3.3125 -2.78125 C 3.5 -2.476562 3.769531 -2.242188 4.125 -2.078125 C 4.476562 -1.910156 4.882812 -1.828125 5.34375 -1.828125 Z M 5.34375 -1.828125 "/></g></g></g><g fill="#fe7f2d" fill-opacity="1"><g transform="translate(106.219912, 19.308884)"><g/></g></g><g fill="#fe7f2d" fill-opacity="1"><g transform="translate(117.559235, 19.308884)"><g><path d="M 3.84375 0 L 1.609375 0 L 1.609375 -12.359375 L 4.796875 -12.359375 L 7.921875 -3.265625 L 8.109375 -3.265625 L 11.21875 -12.359375 L 14.34375 -12.359375 L 14.34375 0 L 12.015625 0 L 12.015625 -8.171875 L 11.8125 -8.203125 L 8.953125 0 L 6.921875 0 L 4.0625 -8.203125 L 3.84375 -8.171875 Z M 3.84375 0 "/></g></g></g><g fill="#fe7f2d" fill-opacity="1"><g transform="translate(140.768269, 19.308884)"><g><path d="M 11.859375 0 L 9.296875 0 L 8.359375 -2.84375 L 3.625 -2.84375 L 2.703125 0 L 0.1875 0 L 4.453125 -12.359375 L 7.59375 -12.359375 Z M 5.875 -9.78125 L 4.28125 -4.90625 L 7.6875 -4.90625 L 6.09375 -9.78125 Z M 5.875 -9.78125 "/></g></g></g><g fill="#fe7f2d" fill-opacity="1"><g transform="translate(160.071466, 19.308884)"><g><path d="M 1.609375 0 L 1.609375 -12.359375 L 6.5625 -12.359375 C 7.84375 -12.359375 8.804688 -12.0625 9.453125 -11.46875 C 10.109375 -10.882812 10.4375 -10.070312 10.4375 -9.03125 C 10.4375 -8.28125 10.242188 -7.664062 9.859375 -7.1875 C 9.484375 -6.707031 8.921875 -6.34375 8.171875 -6.09375 L 8.171875 -5.921875 C 8.554688 -5.742188 8.867188 -5.488281 9.109375 -5.15625 C 9.347656 -4.832031 9.570312 -4.34375 9.78125 -3.6875 L 11.015625 0 L 8.515625 0 L 7.296875 -3.6875 C 7.179688 -4.0625 7.046875 -4.351562 6.890625 -4.5625 C 6.734375 -4.769531 6.535156 -4.914062 6.296875 -5 C 6.054688 -5.09375 5.742188 -5.140625 5.359375 -5.140625 L 4.046875 -5.140625 L 4.046875 0 Z M 6.265625 -7.078125 C 7.453125 -7.078125 8.046875 -7.628906 8.046875 -8.734375 C 8.046875 -9.859375 7.453125 -10.421875 6.265625 -10.421875 L 4.046875 -10.421875 L 4.046875 -7.078125 Z M 6.265625 -7.078125 "/></g></g></g><g fill="#fe7f2d" fill-opacity="1"><g transform="translate(178.884292, 19.308884)"><g><path d="M 1.609375 0 L 1.609375 -12.359375 L 4.046875 -12.359375 L 4.046875 -7.3125 L 4.3125 -7.3125 L 8.4375 -12.359375 L 10.953125 -12.359375 L 10.953125 -12.140625 L 6.40625 -6.53125 L 11.421875 -0.21875 L 11.421875 0 L 8.65625 0 L 4.3125 -5.328125 L 4.046875 -5.328125 L 4.046875 0 Z M 1.609375 0 "/></g></g></g><g fill="#fe7f2d" fill-opacity="1"><g transform="translate(197.561887, 19.308884)"><g><path d="M 4.046875 -5.421875 L 4.046875 -2.046875 L 9.953125 -2.046875 L 9.953125 0 L 1.609375 0 L 1.609375 -12.359375 L 9.8125 -12.359375 L 9.8125 -10.3125 L 4.046875 -10.3125 L 4.046875 -7.421875 L 9.09375 -7.421875 L 9.09375 -5.421875 Z M 4.046875 -5.421875 "/></g></g></g><g fill="#fe7f2d" fill-opacity="1"><g transform="translate(215.444759, 19.308884)"><g><path d="M 9.90625 -12.359375 L 9.90625 -10.296875 L 6.34375 -10.296875 L 6.34375 0 L 3.90625 0 L 3.90625 -10.296875 L 0.34375 -10.296875 L 0.34375 -12.359375 Z M 9.90625 -12.359375 "/></g></g></g><g fill="#fe7f2d" fill-opacity="1"><g transform="translate(232.947197, 19.308884)"><g><path d="M 4.046875 0 L 1.609375 0 L 1.609375 -12.359375 L 4.046875 -12.359375 Z M 4.046875 0 "/></g></g></g><g fill="#fe7f2d" fill-opacity="1"><g transform="translate(245.867462, 19.308884)"><g><path d="M 3.96875 0 L 1.609375 0 L 1.609375 -12.359375 L 4.40625 -12.359375 L 9.359375 -4.390625 L 9.59375 -4.421875 L 9.59375 -12.359375 L 11.9375 -12.359375 L 11.9375 0 L 9.4375 0 L 4.1875 -8.5 L 3.96875 -8.46875 Z M 3.96875 0 "/></g></g></g><g fill="#fe7f2d" fill-opacity="1"><g transform="translate(266.6755, 19.308884)"><g><path d="M 6 0.171875 C 4.96875 0.171875 4.078125 -0.0625 3.328125 -0.53125 C 2.578125 -1 1.992188 -1.707031 1.578125 -2.65625 C 1.171875 -3.601562 0.96875 -4.773438 0.96875 -6.171875 C 0.96875 -7.585938 1.210938 -8.769531 1.703125 -9.71875 C 2.191406 -10.664062 2.875 -11.367188 3.75 -11.828125 C 4.625 -12.296875 5.632812 -12.53125 6.78125 -12.53125 C 7.96875 -12.53125 8.976562 -12.3125 9.8125 -11.875 C 10.644531 -11.4375 11.226562 -10.785156 11.5625 -9.921875 L 9.78125 -8.828125 L 9.5625 -8.84375 C 9.3125 -9.394531 8.957031 -9.796875 8.5 -10.046875 C 8.039062 -10.304688 7.46875 -10.4375 6.78125 -10.4375 C 5.71875 -10.4375 4.898438 -10.097656 4.328125 -9.421875 C 3.765625 -8.742188 3.484375 -7.660156 3.484375 -6.171875 C 3.484375 -4.679688 3.75 -3.597656 4.28125 -2.921875 C 4.8125 -2.242188 5.59375 -1.90625 6.625 -1.90625 C 7.507812 -1.90625 8.160156 -2.101562 8.578125 -2.5 C 9.003906 -2.90625 9.21875 -3.503906 9.21875 -4.296875 L 9.21875 -4.828125 L 6.296875 -4.828125 L 6.296875 -6.828125 L 11.65625 -6.828125 L 11.65625 0 L 9.3125 0 L 9.3125 -1.65625 L 9.140625 -1.6875 C 8.878906 -1.09375 8.488281 -0.632812 7.96875 -0.3125 C 7.457031 0.0078125 6.800781 0.171875 6 0.171875 Z M 6 0.171875 "/></g></g></g></g></g></g></g></g></svg>